# Made in Blockbench 4.10.4
mtllib plant.mtl

o cube
v 0.53125 0.8125 0.40625
v 0.46875 0.8125 0.40625
v 0.53125 0 0.40625
v 0.46875 0 0.40625
v 0.53125 0.8125 0.40625
v 0.46875 0.8125 0.40625
v 0.53125 0 0.40625
v 0.46875 0 0.40625
v 0.5 0.8125 0.4375
v 0.5 0.8125 0.375
v 0.5 0 0.4375
v 0.5 0 0.375
v 0.5 0.8125 0.4375
v 0.5 0.8125 0.375
v 0.5 0 0.4375
v 0.5 0 0.375
v 0.34375 0.6742153511154413 0.16662408414527602
v 0.65625 0.6742153511154412 0.1666240841452761
v 0.34375 0.9092839297671756 0.5356078416884118
v 0.65625 0.9092839297671755 0.5356078416884118
v 0.34375 0.6742153511154413 0.16662408414527602
v 0.65625 0.6742153511154412 0.1666240841452761
v 0.34375 0.9092839297671756 0.5356078416884118
v 0.65625 0.9092839297671755 0.5356078416884118
v 0.8658077150608907 0.3630593970391831 0.5673986652531108
v 0.6354085473077269 0.36305939703918316 0.7785206051330047
v 0.6410867777068127 0.536215127002319 0.32215879595035013
v 0.41068760995364884 0.5362151270023191 0.533280735830244
v 0.8658077150608907 0.3630593970391831 0.5673986652531108
v 0.6354085473077269 0.36305939703918316 0.7785206051330047
v 0.6410867777068127 0.536215127002319 0.32215879595035013
v 0.41068760995364884 0.5362151270023191 0.533280735830244
v 0.5625 0.5 0.5
v 0.5625 0.5 0.4375
v 0.5625 0 0.5
v 0.5625 0 0.4375
v 0.5625 0.5 0.5
v 0.5625 0.5 0.4375
v 0.5625 0 0.5
v 0.5625 0 0.4375
v 0.53125 0.5 0.46875
v 0.59375 0.5 0.46875
v 0.53125 0 0.46875
v 0.59375 0 0.46875
v 0.53125 0.5 0.46875
v 0.59375 0.5 0.46875
v 0.53125 0 0.46875
v 0.59375 0 0.46875
vt 0.34375 0.59375
vt 0.34375 1
vt 0.3125 1
vt 0.3125 0.59375
vt 0.375 0.59375
vt 0.375 1
vt 0.34375 1
vt 0.34375 0.59375
vt 0 0.96875
vt 0 0.96875
vt 0 1
vt 0 1
vt 0 1
vt 0 1
vt 0 0.96875
vt 0 0.96875
vt 0 1
vt 0 1
vt 0 0.59375
vt 0 0.59375
vt 0 1
vt 0 1
vt 0 0.59375
vt 0 0.59375
vt 0.40625 0.59375
vt 0.40625 1
vt 0.375 1
vt 0.375 0.59375
vt 0.03125 0.1875
vt 0.03125 0.59375
vt 0 0.59375
vt 0 0.1875
vt 0 0.96875
vt 0 0.96875
vt 0 1
vt 0 1
vt 0 1
vt 0 1
vt 0 0.96875
vt 0 0.96875
vt 0 1
vt 0 1
vt 0 0.59375
vt 0 0.59375
vt 0 1
vt 0 1
vt 0 0.59375
vt 0 0.59375
vt 0.15625 0.78125
vt 0.15625 1
vt 0 1
vt 0 0.78125
vt 0.3125 0.78125
vt 0.3125 1
vt 0.15625 1
vt 0.15625 0.78125
vt 0 0.84375
vt 0 0.84375
vt 0 1
vt 0 1
vt 0 1
vt 0 1
vt 0 0.84375
vt 0 0.84375
vt 0 1
vt 0 1
vt 0 0.78125
vt 0 0.78125
vt 0 1
vt 0 1
vt 0 0.78125
vt 0 0.78125
vt 0.15625 0.59375
vt 0.15625 0.78125
vt 0 0.78125
vt 0 0.59375
vt 0.3125 0.59375
vt 0.3125 0.78125
vt 0.15625 0.78125
vt 0.15625 0.59375
vt 0 0.84375
vt 0 0.84375
vt 0 1
vt 0 1
vt 0 1
vt 0 1
vt 0 0.84375
vt 0 0.84375
vt 0 1
vt 0 1
vt 0 0.8125
vt 0 0.8125
vt 0 1
vt 0 1
vt 0 0.8125
vt 0 0.8125
vt 0.09375 0.34375
vt 0.09375 0.59375
vt 0.0625 0.59375
vt 0.0625 0.34375
vt 0.125 0.34375
vt 0.125 0.59375
vt 0.09375 0.59375
vt 0.09375 0.34375
vt 0 0.96875
vt 0 0.96875
vt 0 1
vt 0 1
vt 0 1
vt 0 1
vt 0 0.96875
vt 0 0.96875
vt 0 1
vt 0 1
vt 0 0.75
vt 0 0.75
vt 0 1
vt 0 1
vt 0 0.75
vt 0 0.75
vt 0.4375 0.75
vt 0.4375 1
vt 0.40625 1
vt 0.40625 0.75
vt 0.0625 0.34375
vt 0.0625 0.59375
vt 0.03125 0.59375
vt 0.03125 0.34375
vt 0 0.96875
vt 0 0.96875
vt 0 1
vt 0 1
vt 0 1
vt 0 1
vt 0 0.96875
vt 0 0.96875
vt 0 1
vt 0 1
vt 0 0.75
vt 0 0.75
vt 0 1
vt 0 1
vt 0 0.75
vt 0 0.75
vn 2.220446049250313e-16 0 -1
vn -2.220446049250313e-16 0 1
vn 0 0 0
vn 0 0 0
vn 0 0 0
vn 0 0 0
vn 1 0 0
vn -1 0 0
vn 0 0 0
vn 0 0 0
vn 0 0 0
vn 0 0 0
vn 4.2382279458750324e-16 0.8433914458128856 -0.537299608346824
vn -4.238227945875033e-16 -0.8433914458128857 0.5372996083468239
vn 0 0 0
vn 0 0 0
vn 0 0 0
vn 0 0 0
vn 0.3119528414817 0.8870108331782218 0.34043678784169373
vn -0.31195284148169994 -0.8870108331782219 -0.3404367878416936
vn 0 0 0
vn 0 0 0
vn 0 0 0
vn 0 0 0
vn 1 0 -2.220446049250313e-16
vn -1 0 2.220446049250313e-16
vn 0 0 0
vn 0 0 0
vn 0 0 0
vn 0 0 0
vn 2.220446049250312e-16 0 1
vn -2.220446049250312e-16 0 -1
vn 0 0 0
vn 0 0 0
vn 0 0 0
vn 0 0 0
usemtl m_bf3bf66f-40d4-0b73-904e-4b6877ea6540
f 4/1/1 2/2/1 1/3/1 3/4/1
f 7/5/2 5/6/2 6/7/2 8/8/2
f 2/9/3 6/10/3 1/11/3 5/12/3
f 3/13/4 7/14/4 4/15/4 8/16/4
f 1/17/5 5/18/5 3/19/5 7/20/5
f 6/21/6 2/22/6 8/23/6 4/24/6
f 12/25/7 10/26/7 9/27/7 11/28/7
f 15/29/8 13/30/8 14/31/8 16/32/8
f 10/33/9 14/34/9 9/35/9 13/36/9
f 11/37/10 15/38/10 12/39/10 16/40/10
f 9/41/11 13/42/11 11/43/11 15/44/11
f 14/45/12 10/46/12 16/47/12 12/48/12
f 20/49/13 18/50/13 17/51/13 19/52/13
f 23/53/14 21/54/14 22/55/14 24/56/14
f 18/57/15 22/58/15 17/59/15 21/60/15
f 19/61/16 23/62/16 20/63/16 24/64/16
f 17/65/17 21/66/17 19/67/17 23/68/17
f 22/69/18 18/70/18 24/71/18 20/72/18
f 28/73/19 26/74/19 25/75/19 27/76/19
f 31/77/20 29/78/20 30/79/20 32/80/20
f 26/81/21 30/82/21 25/83/21 29/84/21
f 27/85/22 31/86/22 28/87/22 32/88/22
f 25/89/23 29/90/23 27/91/23 31/92/23
f 30/93/24 26/94/24 32/95/24 28/96/24
f 36/97/25 34/98/25 33/99/25 35/100/25
f 39/101/26 37/102/26 38/103/26 40/104/26
f 34/105/27 38/106/27 33/107/27 37/108/27
f 35/109/28 39/110/28 36/111/28 40/112/28
f 33/113/29 37/114/29 35/115/29 39/116/29
f 38/117/30 34/118/30 40/119/30 36/120/30
f 44/121/31 42/122/31 41/123/31 43/124/31
f 47/125/32 45/126/32 46/127/32 48/128/32
f 42/129/33 46/130/33 41/131/33 45/132/33
f 43/133/34 47/134/34 44/135/34 48/136/34
f 41/137/35 45/138/35 43/139/35 47/140/35
f 46/141/36 42/142/36 48/143/36 44/144/36